# xmcd CD database file generated by freedbAccess_ocx
#
# Track frame offsets:
#       150
#       17930
#       32898
#       53177
#       68561
#       83271
#       100562
#       117748
#       143295
#
# Disc length: 2094 seconds
#
# Revision: 0
# Processed by: cddbd v1.5.1PL0 Copyright (c) Steve Scherf et al.
# Submitted via: CDnGo 2.00
#
DISCID=68082c09
DTITLE=Goldentone - live on radio
DYEAR=2001
DGENRE=Alt. Country
TTITLE0=hope for us
TTITLE1=beautiful
TTITLE2=second chance
TTITLE3=lingering ache
TTITLE4=heartbeat
TTITLE5=goodbye
TTITLE6=summer rain
TTITLE7=hands of mercy
TTITLE8=overdrive
EXTD=
EXTT0=
EXTT1=
EXTT2=
EXTT3=
EXTT4=
EXTT5=
EXTT6=
EXTT7=
EXTT8=
PLAYORDER=
